<?xml version="1.0" standalone="no"?>
<!DOCTYPE svg PUBLIC "-//W3C//DTD SVG 20010904//EN"
 "http://www.w3.org/TR/2001/REC-SVG-20010904/DTD/svg10.dtd">
<svg version="1.0" xmlns="http://www.w3.org/2000/svg"
 width="1358.000000pt" height="401.000000pt" viewBox="0 0 1358.000000 401.000000"
 preserveAspectRatio="xMidYMid meet">

<g transform="translate(0.000000,401.000000) scale(0.100000,-0.100000)"
fill="#000000" stroke="none">
<path d="M1140 3570 c0 -5 -22 -10 -50 -10 -27 0 -50 -4 -50 -10 0 -5 -22 -10
-50 -10 -27 0 -50 -4 -50 -10 0 -6 -32 -10 -75 -10 -43 0 -75 -4 -75 -10 0 -5
-14 -10 -31 -10 -17 0 -37 -7 -45 -15 -14 -13 -14 -17 0 -30 16 -17 86 -21 86
-5 0 6 30 10 70 10 40 0 70 4 70 10 0 6 23 10 50 10 28 0 50 5 50 10 0 6 24
10 54 10 30 0 58 5 61 10 4 6 227 10 636 10 413 0 629 -3 629 -10 0 -5 23 -10
50 -10 28 0 50 -4 50 -10 0 -5 14 -10 30 -10 17 0 30 -4 30 -10 0 -5 18 -10
40 -10 22 0 40 -4 40 -10 0 -5 23 -10 50 -10 28 0 50 -4 50 -10 0 -5 13 -10
28 -10 16 0 34 -8 42 -20 8 -11 22 -20 32 -20 10 0 18 -4 18 -10 0 -5 11 -10
25 -10 29 0 95 -59 95 -85 0 -8 5 -15 10 -15 6 0 10 -9 10 -20 0 -11 5 -20 10
-20 6 0 10 -60 10 -160 0 -100 -4 -160 -10 -160 -5 0 -10 -7 -10 -15 0 -9 -11
-27 -25 -41 -14 -14 -25 -29 -25 -34 0 -6 -7 -10 -16 -10 -8 0 -13 -4 -10 -9
3 -5 -1 -11 -9 -15 -8 -3 -15 -12 -15 -21 0 -8 -7 -15 -15 -15 -8 0 -15 -4
-15 -10 0 -5 -5 -10 -11 -10 -6 0 -24 -13 -39 -30 -15 -16 -33 -30 -39 -30 -6
0 -16 -9 -23 -20 -7 -11 -17 -20 -21 -20 -5 0 -22 -13 -37 -30 -15 -16 -34
-30 -42 -30 -7 0 -20 -9 -28 -20 -8 -11 -20 -20 -27 -20 -7 0 -13 -4 -13 -10
0 -5 -7 -10 -15 -10 -8 0 -15 -6 -15 -12 0 -9 -4 -8 -10 2 -6 10 -10 11 -10 3
0 -7 -9 -13 -20 -13 -11 0 -20 -4 -20 -10 0 -5 -25 -10 -55 -10 -30 0 -55 -4
-55 -10 0 -6 -28 -10 -65 -10 -36 0 -65 -4 -65 -10 0 -15 -977 -14 -982 2 -5
15 -38 -13 -38 -32 0 -39 10 -40 519 -40 321 0 491 3 491 10 0 6 32 10 75 10
43 0 75 4 75 10 0 6 23 10 50 10 28 0 50 5 50 10 0 6 14 10 30 10 17 0 30 5
30 10 0 6 9 10 20 10 11 0 20 5 20 10 0 6 8 10 18 10 10 0 24 9 32 20 8 11 21
20 28 20 8 0 27 14 42 30 15 17 33 30 40 30 6 0 33 23 60 50 27 28 54 50 60
50 7 0 25 14 40 30 27 29 60 40 60 20 0 -5 18 -10 40 -10 22 0 40 -4 40 -10 0
-5 18 -10 40 -10 22 0 40 -4 40 -10 0 -6 43 -10 110 -10 67 0 110 4 110 10 0
6 23 10 50 10 29 0 50 5 50 11 0 6 12 9 28 7 26 -3 27 -5 30 -70 2 -38 7 -68
12 -68 6 0 10 -9 10 -20 0 -11 5 -20 10 -20 6 0 10 -16 10 -36 0 -38 18 -64
44 -64 13 0 16 12 16 60 0 33 -4 60 -10 60 -5 0 -10 9 -10 20 0 11 -4 20 -10
20 -6 0 -10 27 -10 60 0 53 2 60 20 60 11 0 20 5 20 10 0 6 9 10 20 10 11 0
20 5 20 10 0 6 30 10 70 10 40 0 70 4 70 10 0 6 8 10 18 10 10 0 24 9 32 20 8
11 22 20 32 20 10 0 18 5 18 10 0 6 9 10 20 10 11 0 20 5 20 10 0 6 7 10 16
10 8 0 33 18 54 40 21 22 46 40 54 40 9 0 16 5 16 10 0 6 9 10 20 10 13 0 20
7 20 18 0 10 9 24 20 32 11 8 20 21 20 28 0 8 14 27 30 42 28 26 30 32 30 104
0 44 -4 76 -10 76 -5 0 -10 23 -10 50 0 28 -4 50 -10 50 -5 0 -10 7 -10 16 0
20 -24 44 -44 44 -9 0 -16 5 -16 10 0 6 -10 10 -23 10 -13 0 -33 9 -45 20 -16
15 -35 20 -77 20 -30 0 -55 5 -55 10 0 6 -18 10 -40 10 -22 0 -40 5 -40 10 0
6 -18 10 -40 10 -22 0 -40 5 -40 10 0 6 -13 10 -30 10 -16 0 -30 5 -30 10 0 6
-60 10 -159 10 -96 0 -162 -4 -166 -10 -3 -5 -15 -10 -26 -10 -10 0 -19 -4
-19 -10 0 -5 -11 -10 -25 -10 -14 0 -25 -4 -25 -10 0 -5 -9 -10 -20 -10 -11 0
-20 -4 -20 -10 0 -5 -9 -10 -20 -10 -11 0 -20 -4 -20 -10 0 -5 -7 -10 -15 -10
-8 0 -15 -4 -15 -10 0 -5 -12 -10 -26 -10 -14 0 -23 -4 -19 -10 3 -5 -1 -10
-9 -10 -9 0 -16 -4 -16 -10 0 -5 -7 -10 -16 -10 -8 0 -12 -4 -9 -10 3 -5 -1
-10 -10 -10 -9 0 -14 -4 -11 -9 7 -10 -35 -8 -53 3 -6 4 -8 12 -5 18 4 6 2 8
-4 4 -6 -3 -22 5 -36 19 -14 14 -37 25 -51 25 -14 0 -25 5 -25 10 0 6 -8 10
-18 10 -10 0 -24 9 -32 20 -10 14 -26 20 -52 20 -21 0 -38 5 -38 10 0 6 -18
10 -40 10 -22 0 -40 5 -40 10 0 6 -18 10 -40 10 -22 0 -40 5 -40 10 0 6 -13
10 -30 10 -16 0 -30 5 -30 10 0 6 -27 10 -60 10 -33 0 -60 4 -60 10 0 7 -220
10 -640 10 -420 0 -640 -3 -640 -10z m2560 -100 c0 -5 18 -10 40 -10 22 0 40
-4 40 -10 0 -5 18 -10 40 -10 22 0 40 -4 40 -10 0 -5 18 -10 40 -10 22 0 40
-4 40 -10 0 -5 22 -10 48 -10 36 0 51 -5 62 -20 8 -11 25 -20 38 -20 40 0 72
-42 72 -95 0 -25 5 -45 10 -45 6 0 10 -25 10 -56 0 -49 -4 -59 -30 -84 -16
-15 -30 -33 -30 -39 0 -15 -46 -61 -60 -61 -6 0 -18 -7 -27 -15 -8 -8 -18 -13
-21 -11 -4 2 -13 -2 -20 -10 -8 -9 -9 -14 -2 -14 7 0 5 -6 -4 -15 -8 -8 -20
-15 -26 -15 -6 0 -20 -9 -32 -20 -12 -11 -28 -20 -35 -20 -7 0 -13 -4 -13 -10
0 -5 -9 -10 -20 -10 -11 0 -20 -4 -20 -10 0 -5 -9 -10 -20 -10 -11 0 -20 -4
-20 -10 0 -6 -30 -10 -70 -10 -40 0 -70 -4 -70 -10 0 -5 -9 -10 -20 -10 -11 0
-20 -4 -20 -10 0 -5 -9 -10 -20 -10 -20 0 -20 7 -20 316 0 267 -2 318 -15 330
-13 14 -17 14 -30 0 -13 -12 -15 -63 -15 -330 0 -309 0 -316 -20 -316 -11 0
-20 -4 -20 -10 0 -5 -22 -10 -50 -10 -27 0 -50 -4 -50 -10 0 -6 -40 -10 -100
-10 -60 0 -100 4 -100 10 0 6 -18 10 -40 10 -22 0 -40 5 -40 10 0 6 -18 10
-40 10 -22 0 -40 5 -40 10 0 6 5 10 10 10 6 0 10 8 10 18 0 10 9 24 20 32 11
8 20 22 20 32 0 10 5 18 10 18 6 0 10 67 10 180 0 113 -4 180 -10 180 -23 0
-7 33 35 75 24 25 51 45 60 45 8 0 15 5 15 10 0 6 9 10 20 10 11 0 20 5 20 10
0 6 9 10 20 10 11 0 20 5 20 10 0 6 9 10 20 10 11 0 20 5 20 10 0 6 9 10 20
10 11 0 20 5 20 10 0 6 9 10 20 10 11 0 20 5 20 10 0 6 57 10 150 10 93 0 150
-4 150 -10z"/>
<path d="M1933 3425 c-21 -24 -15 -55 17 -85 17 -15 30 -34 30 -42 0 -7 9 -20
20 -28 11 -8 20 -22 20 -32 0 -10 5 -18 10 -18 6 0 10 -13 10 -30 0 -16 5 -30
10 -30 6 0 10 -11 10 -24 0 -14 5 -28 10 -31 6 -3 10 -19 10 -36 0 -16 5 -29
10 -29 6 0 10 -9 10 -20 0 -11 5 -20 10 -20 6 0 10 -9 10 -20 0 -11 5 -20 10
-20 6 0 10 -9 10 -20 0 -11 5 -20 10 -20 6 0 10 -15 10 -34 0 -19 5 -38 10
-41 6 -3 10 -24 10 -46 0 -21 5 -39 10 -39 6 0 10 -17 10 -38 0 -26 6 -42 20
-52 11 -8 20 -22 20 -32 0 -10 5 -18 10 -18 15 0 13 -97 -2 -103 -23 -7 12
-37 43 -37 l29 0 0 70 c0 40 -4 70 -10 70 -5 0 -10 13 -10 28 0 16 -8 34 -20
42 -13 9 -20 26 -20 47 0 17 -4 35 -10 38 -5 3 -10 24 -10 46 0 21 -4 39 -10
39 -5 0 -10 14 -10 30 0 17 -4 30 -10 30 -5 0 -10 14 -10 30 0 17 -4 30 -10
30 -5 0 -10 9 -10 20 0 11 -4 20 -10 20 -5 0 -10 9 -10 20 0 11 -4 20 -10 20
-5 0 -10 14 -10 30 0 17 -4 30 -10 30 -5 0 -10 14 -10 30 0 17 -4 30 -10 30
-5 0 -10 9 -10 20 0 11 -4 20 -10 20 -5 0 -10 14 -10 30 0 17 -4 30 -10 30 -5
0 -10 6 -10 13 0 7 -9 23 -20 35 -11 12 -20 26 -20 31 0 6 -9 16 -20 23 -11 7
-20 17 -20 21 0 8 -25 37 -32 37 -2 -1 -9 -7 -15 -15z"/>
<path d="M4513 3285 c-18 -20 -16 -38 7 -55 12 -8 20 -26 20 -42 0 -15 5 -28
10 -28 6 0 10 -9 10 -20 0 -11 5 -20 10 -20 6 0 10 -7 10 -16 0 -9 14 -29 30
-44 17 -15 30 -34 30 -42 0 -7 9 -20 20 -28 11 -8 20 -21 20 -30 0 -9 9 -22
20 -30 11 -8 20 -20 20 -27 0 -7 14 -27 30 -45 17 -17 30 -35 30 -40 0 -18
-29 -38 -54 -38 -14 0 -26 -4 -26 -10 0 -5 -9 -10 -20 -10 -11 0 -20 -4 -20
-10 0 -5 -9 -10 -20 -10 -11 0 -20 -4 -20 -10 0 -5 -9 -10 -20 -10 -11 0 -20
-4 -20 -10 0 -5 -9 -10 -20 -10 -11 0 -20 -4 -20 -10 0 -5 -22 -10 -50 -10
-27 0 -50 -4 -50 -10 0 -5 -18 -10 -40 -10 -22 0 -40 -4 -40 -10 0 -5 -11 -10
-25 -10 -14 0 -25 -4 -25 -10 0 -5 -18 -10 -41 -10 -51 0 -78 -22 -55 -45 16
-17 106 -21 106 -5 0 6 14 10 30 10 17 0 30 5 30 10 0 6 14 10 30 10 17 0 30
5 30 10 0 6 23 10 50 10 28 0 50 5 50 10 0 6 14 10 30 10 17 0 30 5 30 10 0 6
8 10 18 10 10 0 24 9 32 20 8 12 26 20 42 20 15 0 28 5 28 10 0 6 14 10 30 10
17 0 30 5 30 10 0 6 11 10 25 10 26 0 115 -78 115 -100 0 -6 11 -22 25 -36 14
-14 25 -29 25 -34 0 -5 11 -20 25 -34 14 -14 25 -31 25 -38 0 -8 9 -20 20 -28
11 -8 20 -21 20 -30 0 -9 9 -22 20 -30 11 -8 20 -20 20 -28 0 -7 54 -66 120
-132 66 -66 120 -126 120 -135 0 -8 7 -15 16 -15 9 0 12 -5 8 -12 -4 -6 -3 -8
3 -5 14 9 73 -46 73 -67 0 -9 5 -16 10 -16 6 0 10 -7 10 -15 0 -18 64 -85 81
-85 6 0 24 -13 39 -30 30 -33 80 -42 80 -15 0 14 -103 125 -115 125 -3 0 -9 0
-15 0 -5 0 -10 9 -10 20 0 11 -4 20 -10 20 -5 0 -10 9 -10 20 0 11 -4 20 -10
20 -5 0 -10 7 -10 17 0 9 -3 14 -6 10 -7 -6 -134 118 -134 131 0 15 -46 53
-54 45 -4 -5 -6 -3 -4 3 4 12 -62 80 -75 76 -4 -1 -6 2 -2 8 3 5 -2 10 -12 10
-15 0 -16 2 -3 10 13 9 13 10 0 11 -8 1 -19 1 -23 0 -5 -1 -6 3 -3 8 4 5 -5
21 -19 35 -14 14 -25 31 -25 38 0 8 -9 20 -20 28 -11 8 -20 21 -20 28 0 8 -13
27 -30 42 -16 15 -30 34 -30 42 0 7 -9 20 -20 28 -11 8 -20 20 -20 28 0 7 -23
36 -51 63 -45 44 -49 51 -35 64 8 8 26 15 40 15 14 0 26 5 26 10 0 6 18 10 40
10 22 0 40 5 40 10 0 6 9 10 20 10 11 0 20 5 20 10 0 6 9 10 20 10 11 0 20 5
20 10 0 6 9 10 20 10 11 0 20 5 20 10 0 6 14 10 30 10 17 0 30 5 30 10 0 6 18
10 40 10 22 0 40 5 40 10 0 6 14 10 30 10 17 0 30 5 30 10 0 6 9 10 20 10 11
0 20 5 20 10 0 6 14 10 30 10 17 0 30 5 30 10 0 6 9 10 20 10 11 0 20 5 20 10
0 6 18 10 40 10 22 0 40 5 40 10 0 6 14 10 30 10 33 0 40 21 16 46 -17 16 -46
19 -46 4 0 -5 -22 -10 -50 -10 -27 0 -50 -4 -50 -10 0 -5 -9 -10 -20 -10 -11
0 -20 -4 -20 -10 0 -5 -13 -10 -30 -10 -16 0 -30 -4 -30 -10 0 -5 -9 -10 -20
-10 -11 0 -20 -4 -20 -10 0 -5 -13 -10 -30 -10 -16 0 -30 -4 -30 -10 0 -5 -13
-10 -30 -10 -16 0 -30 -4 -30 -10 0 -5 -15 -10 -32 -10 -18 0 -44 -9 -58 -20
-14 -11 -33 -20 -42 -20 -9 0 -20 -4 -23 -10 -3 -5 -15 -10 -26 -10 -10 0 -19
-4 -19 -10 0 -5 -13 -10 -30 -10 -16 0 -30 -4 -30 -10 0 -5 -13 -10 -29 -10
-17 0 -33 -4 -36 -10 -3 -5 -22 -10 -41 -10 -26 0 -34 4 -34 18 0 10 -9 24
-20 32 -11 8 -20 21 -20 30 0 9 -9 22 -20 30 -11 8 -20 21 -20 30 0 9 -9 22
-20 30 -11 8 -20 21 -20 28 0 8 -13 27 -30 42 -16 15 -30 35 -30 44 0 9 -4 16
-10 16 -5 0 -10 9 -10 20 0 11 -4 20 -10 20 -5 0 -10 9 -10 20 0 11 -4 20 -10
20 -5 0 -10 7 -10 15 0 13 -43 66 -52 65 -2 -1 -9 -7 -15 -15z"/>
</g>
</svg>
